<?xml version="1.0" encoding="UTF-8" standalone="no"?>
<!DOCTYPE svg PUBLIC "-//W3C//DTD SVG 1.1//EN" "http://www.w3.org/Graphics/SVG/1.1/DTD/svg11.dtd">
<svg width="100%" height="100%" viewBox="0 0 200 59" version="1.1" xmlns="http://www.w3.org/2000/svg" xmlns:xlink="http://www.w3.org/1999/xlink" xml:space="preserve" xmlns:serif="http://www.serif.com/" style="fill-rule:evenodd;clip-rule:evenodd;stroke-linejoin:round;stroke-miterlimit:2;">
    <g transform="matrix(1,0,0,1,-340,-110.791)">
        <g id="App-Store" serif:id="App Store" transform="matrix(0.301102,0,0,0.307764,-1540.52,-149.284)">
            <g transform="matrix(1,0,0,1,6909.67,863.928)">
                <path d="M0,151.994C0,162.558 -8.488,170.875 -19.07,170.875L-645.607,170.875C-656.189,170.875 -664.226,162.807 -664.226,152.241L-664.226,-0.277C-664.226,-10.844 -656.189,-18.881 -645.607,-18.881L-19.07,-18.881C-8.488,-18.881 -0.091,-10.844 -0.091,-0.277L-0.091,152.241L0,151.994Z" style="fill:rgb(16,15,16);fill-rule:nonzero;"/>
            </g>
            <g transform="matrix(1,0,0,1,6390.9,960.849)">
                <path d="M0,-22.004C-0.15,-38.094 13.177,-45.927 13.785,-46.289C6.244,-57.299 -5.458,-58.797 -9.566,-58.917C-19.385,-59.947 -28.914,-53.03 -33.909,-53.03C-39.012,-53.03 -46.733,-58.812 -55.025,-58.646C-65.714,-58.473 -75.714,-52.287 -81.191,-42.685C-92.502,-23.096 -84.066,5.689 -73.23,21.532C-67.805,29.282 -61.469,37.943 -53.175,37.635C-45.063,37.297 -42.037,32.466 -32.24,32.466C-22.532,32.466 -19.687,37.635 -11.228,37.44C-2.521,37.297 2.957,29.649 8.188,21.823C14.463,12.936 16.977,4.184 17.076,3.732C16.872,3.665 0.166,-2.708 0,-22.004" style="fill:white;fill-rule:nonzero;"/>
            </g>
            <g transform="matrix(0.658566,-0.752523,-0.752523,-0.658566,6376.9,884.943)">
                <path d="M-6.251,-2.84C0.728,-2.53 8.292,0.109 13.405,5.703C9.037,10.271 0.764,13.52 -6.251,13.422C-12.443,13.355 -20.621,10.987 -25.46,5.513C-21.178,-0.18 -13.293,-2.95 -6.251,-2.84" style="fill:white;fill-rule:nonzero;"/>
            </g>
            <g transform="matrix(1,0,0,1,6488.91,958.638)">
                <path d="M0,11.022L-5.613,-6.332C-6.216,-8.099 -7.33,-12.277 -8.97,-18.845L-9.167,-18.845C-9.826,-16.016 -10.882,-11.847 -12.327,-6.332L-17.849,11.022L0,11.022ZM19.416,38.739L8.082,38.739L1.866,19.21L-19.717,19.21L-25.64,38.739L-36.679,38.739L-15.276,-27.717L-2.076,-27.717L19.416,38.739Z" style="fill:white;fill-rule:nonzero;"/>
            </g>
            <g transform="matrix(1,0,0,1,6552.5,992.147)">
                <path d="M0,-18.935C0,-23.599 -1.053,-27.444 -3.153,-30.471C-5.457,-33.623 -8.548,-35.205 -12.417,-35.205C-15.051,-35.205 -17.443,-34.325 -19.565,-32.593C-21.703,-30.838 -23.103,-28.56 -23.758,-25.73C-24.088,-24.413 -24.246,-23.336 -24.246,-22.487L-24.246,-14.494C-24.246,-11.009 -23.185,-8.068 -21.055,-5.674C-18.91,-3.265 -16.134,-2.077 -12.718,-2.077C-8.707,-2.077 -5.583,-3.611 -3.355,-6.705C-1.112,-9.799 0,-13.87 0,-18.935M10.846,-19.327C10.846,-11.175 8.646,-4.733 4.239,0.001C0.295,4.208 -4.605,6.306 -10.445,6.306C-16.759,6.306 -21.297,4.034 -24.059,-0.497L-24.246,-0.497L-24.246,24.743L-34.902,24.743L-34.902,-26.919C-34.902,-32.043 -35.031,-37.295 -35.294,-42.693L-25.932,-42.693L-25.338,-35.098L-25.135,-35.098C-21.59,-40.82 -16.194,-43.678 -8.97,-43.678C-3.326,-43.678 1.401,-41.442 5.179,-36.971C8.956,-32.494 10.846,-26.617 10.846,-19.327" style="fill:white;fill-rule:nonzero;"/>
            </g>
            <g transform="matrix(1,0,0,1,6607.62,992.147)">
                <path d="M0,-18.935C0,-23.599 -1.053,-27.444 -3.162,-30.471C-5.465,-33.623 -8.55,-35.205 -12.425,-35.205C-15.059,-35.205 -17.445,-34.325 -19.574,-32.593C-21.71,-30.838 -23.104,-28.56 -23.758,-25.73C-24.097,-24.413 -24.255,-23.336 -24.255,-22.487L-24.255,-14.494C-24.255,-11.009 -23.194,-8.068 -21.057,-5.674C-18.919,-3.265 -16.148,-2.077 -12.718,-2.077C-8.715,-2.077 -5.585,-3.611 -3.355,-6.705C-1.129,-9.799 0,-13.87 0,-18.935M10.837,-19.327C10.837,-11.175 8.64,-4.733 4.229,0.001C0.285,4.208 -4.605,6.306 -10.46,6.306C-16.767,6.306 -21.297,4.034 -24.059,-0.497L-24.255,-0.497L-24.255,24.743L-34.902,24.743L-34.902,-26.919C-34.902,-32.043 -35.039,-37.295 -35.294,-42.693L-25.934,-42.693L-25.338,-35.098L-25.134,-35.098C-21.599,-40.82 -16.211,-43.678 -8.972,-43.678C-3.326,-43.678 1.393,-41.442 5.177,-36.971C8.954,-32.494 10.837,-26.617 10.837,-19.327" style="fill:white;fill-rule:nonzero;"/>
            </g>
            <g transform="matrix(1,0,0,1,6680.08,949.545)">
                <path d="M0,29.191C0,34.843 -1.957,39.44 -5.908,42.994C-10.236,46.877 -16.265,48.809 -24.001,48.809C-31.148,48.809 -36.89,47.431 -41.232,44.672L-38.763,35.799C-34.084,38.628 -28.958,40.035 -23.367,40.035C-19.355,40.035 -16.233,39.132 -13.992,37.327C-11.763,35.513 -10.648,33.09 -10.648,30.065C-10.648,27.371 -11.567,25.09 -13.403,23.253C-15.24,21.404 -18.311,19.695 -22.585,18.114C-34.22,13.765 -40.027,7.413 -40.027,-0.947C-40.027,-6.412 -37.996,-10.89 -33.916,-14.373C-29.845,-17.866 -24.421,-19.618 -17.646,-19.618C-11.598,-19.618 -6.569,-18.557 -2.566,-16.458L-5.223,-7.781C-8.972,-9.814 -13.208,-10.836 -17.948,-10.836C-21.696,-10.836 -24.616,-9.919 -26.716,-8.076C-28.482,-6.435 -29.374,-4.425 -29.374,-2.061C-29.374,0.564 -28.364,2.74 -26.324,4.44C-24.557,6.02 -21.334,7.729 -16.662,9.574C-10.942,11.877 -6.744,14.57 -4.041,17.654C-1.35,20.749 0,24.593 0,29.191" style="fill:white;fill-rule:nonzero;"/>
            </g>
            <g transform="matrix(1,0,0,1,6715.28,978.435)">
                <path d="M0,-20.995L-11.732,-20.995L-11.732,2.274C-11.732,8.19 -9.664,11.146 -5.516,11.146C-3.621,11.146 -2.041,10.981 -0.792,10.656L-0.499,18.74C-2.589,19.528 -5.357,19.92 -8.774,19.92C-12.983,19.92 -16.271,18.642 -18.634,16.083C-20.998,13.518 -22.185,9.205 -22.185,3.162L-22.185,-20.995L-29.185,-20.995L-29.185,-28.986L-22.185,-28.986L-22.185,-37.755L-11.732,-40.915L-11.732,-28.986L0,-28.986L0,-20.995Z" style="fill:white;fill-rule:nonzero;"/>
            </g>
            <g transform="matrix(1,0,0,1,6757.18,973.559)">
                <path d="M0,-0.197C0,-4.613 -0.95,-8.399 -2.861,-11.566C-5.088,-15.389 -8.279,-17.302 -12.417,-17.302C-16.7,-17.302 -19.951,-15.389 -22.18,-11.566C-24.091,-8.399 -25.03,-4.546 -25.03,0.008C-25.03,4.425 -24.091,8.21 -22.18,11.372C-19.884,15.195 -16.662,17.106 -12.508,17.106C-8.444,17.106 -5.252,15.164 -2.958,11.274C-0.986,8.044 0,4.222 0,-0.197M11.047,-0.541C11.047,6.824 8.947,12.868 4.74,17.603C0.329,22.471 -5.524,24.894 -12.809,24.894C-19.853,24.894 -25.443,22.562 -29.621,17.894C-33.798,13.229 -35.882,7.345 -35.882,0.255C-35.882,-7.181 -33.736,-13.26 -29.425,-17.985C-25.128,-22.727 -19.325,-25.091 -12.027,-25.091C-4.999,-25.091 0.662,-22.757 4.934,-18.091C9.015,-13.546 11.047,-7.706 11.047,-0.541" style="fill:white;fill-rule:nonzero;"/>
            </g>
            <g transform="matrix(1,0,0,1,6802.83,987.022)">
                <path d="M0,-28.206C-1.052,-28.393 -2.166,-28.499 -3.348,-28.499C-7.087,-28.499 -9.992,-27.076 -12.032,-24.255C-13.8,-21.755 -14.688,-18.602 -14.688,-14.794L-14.688,10.348L-25.33,10.348L-25.239,-22.477C-25.239,-28.002 -25.376,-33.03 -25.629,-37.568L-16.359,-37.568L-15.968,-28.393L-15.681,-28.393C-14.56,-31.547 -12.777,-34.082 -10.353,-35.986C-7.991,-37.694 -5.417,-38.554 -2.654,-38.554C-1.677,-38.554 -0.781,-38.486 0,-38.364L0,-28.206Z" style="fill:white;fill-rule:nonzero;"/>
            </g>
            <g transform="matrix(1,0,0,1,6840.29,978.255)">
                <path d="M0,-9.873C0.075,-13.02 -0.617,-15.751 -2.063,-18.054C-3.906,-21.012 -6.744,-22.493 -10.552,-22.493C-14.028,-22.493 -16.856,-21.041 -19.024,-18.151C-20.801,-15.849 -21.854,-13.095 -22.17,-9.873L0,-9.873ZM10.152,-7.111C10.152,-5.199 10.023,-3.598 9.769,-2.279L-22.17,-2.279C-22.05,2.453 -20.499,6.072 -17.541,8.573C-14.855,10.809 -11.364,11.913 -7.088,11.913C-2.371,11.913 1.942,11.16 5.825,9.649L7.495,17.047C2.966,19.019 -2.392,20.011 -8.579,20.011C-15.999,20.011 -21.839,17.82 -26.076,13.446C-30.306,9.081 -32.435,3.205 -32.435,-4.153C-32.435,-11.378 -30.464,-17.397 -26.512,-22.2C-22.381,-27.326 -16.789,-29.884 -9.761,-29.884C-2.86,-29.884 2.378,-27.326 5.932,-22.2C8.745,-18.121 10.152,-13.095 10.152,-7.111" style="fill:white;fill-rule:nonzero;"/>
            </g>
            <g transform="matrix(1,0,0,1,6479.46,891.488)">
                <path d="M0,-1.303C0,-5.12 -1.016,-8.038 -3.032,-10.077C-5.057,-12.111 -7.991,-13.124 -11.876,-13.124C-13.523,-13.124 -14.923,-13.013 -16.09,-12.785L-16.09,11.626C-15.442,11.725 -14.261,11.769 -12.553,11.769C-8.55,11.769 -5.448,10.662 -3.283,8.428C-1.098,6.201 0,2.957 0,-1.303M5.509,-1.452C5.509,4.424 3.756,8.851 0.233,11.82C-3.025,14.561 -7.66,15.938 -13.66,15.938C-16.631,15.938 -19.19,15.81 -21.318,15.547L-21.318,-16.565C-18.544,-17.016 -15.54,-17.241 -12.311,-17.241C-6.593,-17.241 -2.281,-15.999 0.632,-13.509C3.882,-10.703 5.509,-6.684 5.509,-1.452" style="fill:white;fill-rule:nonzero;"/>
            </g>
            <g transform="matrix(1,0,0,1,6508.8,895.444)">
                <path d="M0,-0.104C0,-2.279 -0.476,-4.131 -1.409,-5.689C-2.508,-7.57 -4.07,-8.511 -6.105,-8.511C-8.198,-8.511 -9.807,-7.57 -10.898,-5.689C-11.838,-4.131 -12.307,-2.243 -12.307,-0.013C-12.307,2.161 -11.838,4.027 -10.898,5.584C-9.776,7.459 -8.198,8.401 -6.149,8.401C-4.154,8.401 -2.583,7.445 -1.454,5.532C-0.491,3.945 0,2.072 0,-0.104M5.426,-0.27C5.426,3.342 4.387,6.315 2.324,8.632C0.158,11.035 -2.719,12.229 -6.3,12.229C-9.763,12.229 -12.508,11.079 -14.563,8.784C-16.609,6.497 -17.634,3.606 -17.634,0.115C-17.634,-3.536 -16.578,-6.523 -14.457,-8.847C-12.35,-11.175 -9.492,-12.333 -5.907,-12.333C-2.447,-12.333 0.322,-11.181 2.414,-8.895C4.424,-6.666 5.426,-3.791 5.426,-0.27" style="fill:white;fill-rule:nonzero;"/>
            </g>
            <g transform="matrix(1,0,0,1,6553.46,907.132)">
                <path d="M0,-23.539L-7.373,0L-12.16,0L-15.215,-10.212C-15.983,-12.763 -16.615,-15.308 -17.104,-17.819L-17.193,-17.819C-17.654,-15.238 -18.286,-12.704 -19.091,-10.212L-22.334,0L-27.181,0L-34.104,-23.539L-28.724,-23.539L-26.066,-12.349C-25.418,-9.7 -24.887,-7.186 -24.464,-4.793L-24.366,-4.793C-23.975,-6.766 -23.343,-9.27 -22.424,-12.304L-19.091,-23.539L-14.832,-23.539L-11.633,-12.546C-10.85,-9.858 -10.22,-7.277 -9.745,-4.793L-9.602,-4.793C-9.24,-7.216 -8.713,-9.797 -7.991,-12.546L-5.13,-23.539L0,-23.539Z" style="fill:white;fill-rule:nonzero;"/>
            </g>
            <g transform="matrix(1,0,0,1,6580.59,883.102)">
                <path d="M0,24.03L-5.229,24.03L-5.229,10.552C-5.229,6.389 -6.812,4.323 -9.979,4.323C-11.53,4.323 -12.778,4.893 -13.758,6.029C-14.72,7.181 -15.209,8.519 -15.209,10.071L-15.209,24.03L-20.44,24.03L-20.44,7.226C-20.44,5.155 -20.499,2.914 -20.629,0.491L-16.035,0.491L-15.787,4.171L-15.639,4.171C-15.036,3.027 -14.126,2.079 -12.93,1.334C-11.514,0.455 -9.926,0 -8.188,0C-5.99,0 -4.163,0.722 -2.71,2.138C-0.904,3.877 0,6.489 0,9.935L0,24.03Z" style="fill:white;fill-rule:nonzero;"/>
            </g>
            <g transform="matrix(-1,0,0,1,13184.8,181.789)">
                <rect x="6589.78" y="690.998" width="5.242" height="34.345" style="fill:white;"/>
            </g>
            <g transform="matrix(1,0,0,1,6620.41,895.444)">
                <path d="M0,-0.104C0,-2.279 -0.475,-4.131 -1.407,-5.689C-2.508,-7.57 -4.07,-8.511 -6.104,-8.511C-8.196,-8.511 -9.805,-7.57 -10.906,-5.689C-11.838,-4.131 -12.306,-2.243 -12.306,-0.013C-12.306,2.161 -11.838,4.027 -10.906,5.584C-9.776,7.459 -8.196,8.401 -6.163,8.401C-4.154,8.401 -2.583,7.445 -1.452,5.532C-0.49,3.945 0,2.072 0,-0.104M5.426,-0.27C5.426,3.342 4.387,6.315 2.317,8.632C0.159,11.035 -2.719,12.229 -6.306,12.229C-9.761,12.229 -12.508,11.079 -14.562,8.784C-16.609,6.497 -17.633,3.606 -17.633,0.115C-17.633,-3.536 -16.585,-6.523 -14.465,-8.847C-12.35,-11.175 -9.506,-12.333 -5.907,-12.333C-2.461,-12.333 0.322,-11.181 2.415,-8.895C4.418,-6.666 5.426,-3.791 5.426,-0.27" style="fill:white;fill-rule:nonzero;"/>
            </g>
            <g transform="matrix(1,0,0,1,6645.73,891.733)">
                <path d="M0,7.31L0,3.681C-5.778,3.585 -8.667,5.172 -8.667,8.431C-8.667,9.658 -8.32,10.568 -7.644,11.185C-6.974,11.795 -6.125,12.102 -5.101,12.102C-3.951,12.102 -2.889,11.742 -1.896,11.019C-0.916,10.297 -0.315,9.363 -0.097,8.235C-0.027,7.97 0,7.663 0,7.31M5.436,15.399L0.732,15.399L0.348,12.691L0.197,12.691C-1.421,14.857 -3.708,15.933 -6.674,15.933C-8.909,15.933 -10.707,15.226 -12.063,13.795C-13.288,12.51 -13.89,10.907 -13.89,9.01C-13.89,6.137 -12.694,3.938 -10.278,2.418C-7.886,0.898 -4.498,0.161 -0.142,0.19L-0.142,-0.247C-0.142,-3.347 -1.768,-4.896 -5.017,-4.896C-7.344,-4.896 -9.391,-4.308 -11.159,-3.152L-12.22,-6.59C-10.022,-7.945 -7.344,-8.623 -4.154,-8.623C2.019,-8.623 5.09,-5.378 5.09,1.117L5.09,9.785C5.09,12.134 5.208,14.014 5.436,15.399" style="fill:white;fill-rule:nonzero;"/>
            </g>
            <g transform="matrix(1,0,0,1,6675.48,883.259)">
                <path d="M0,13.947L0,10.025C0,9.348 -0.054,8.792 -0.151,8.378C-0.444,7.122 -1.076,6.053 -2.056,5.202C-3.025,4.343 -4.186,3.922 -5.554,3.922C-7.497,3.922 -9.031,4.69 -10.146,6.241C-11.273,7.798 -11.831,9.778 -11.831,12.193C-11.831,14.527 -11.29,16.424 -10.22,17.868C-9.086,19.419 -7.564,20.192 -5.66,20.192C-3.936,20.192 -2.546,19.546 -1.521,18.252C-0.512,17.063 0,15.625 0,13.947M5.417,23.873L0.768,23.873L0.519,20.096L0.375,20.096C-1.107,22.97 -3.628,24.414 -7.173,24.414C-10.024,24.414 -12.373,23.295 -14.246,21.066C-16.119,18.84 -17.052,15.949 -17.052,12.397C-17.052,8.582 -16.045,5.502 -14.014,3.139C-12.04,0.944 -9.619,-0.149 -6.743,-0.149C-3.575,-0.149 -1.363,0.913 -0.106,3.05L0,3.05L0,-10.467L5.223,-10.467L5.223,17.529C5.223,19.825 5.29,21.938 5.417,23.873" style="fill:white;fill-rule:nonzero;"/>
            </g>
            <g transform="matrix(1,0,0,1,6720.23,895.444)">
                <path d="M0,-0.104C0,-2.279 -0.476,-4.131 -1.407,-5.689C-2.499,-7.57 -4.081,-8.511 -6.097,-8.511C-8.202,-8.511 -9.806,-7.57 -10.898,-5.689C-11.831,-4.131 -12.307,-2.243 -12.307,-0.013C-12.307,2.161 -11.831,4.027 -10.898,5.584C-9.768,7.459 -8.189,8.401 -6.148,8.401C-4.154,8.401 -2.589,7.445 -1.46,5.532C-0.482,3.945 0,2.072 0,-0.104M5.433,-0.27C5.433,3.342 4.395,6.315 2.317,8.632C0.164,11.035 -2.716,12.229 -6.293,12.229C-9.761,12.229 -12.508,11.079 -14.555,8.784C-16.602,6.497 -17.625,3.606 -17.625,0.115C-17.625,-3.536 -16.572,-6.523 -14.464,-8.847C-12.343,-11.175 -9.491,-12.333 -5.917,-12.333C-2.453,-12.333 0.315,-11.181 2.424,-8.895C4.424,-6.666 5.433,-3.791 5.433,-0.27" style="fill:white;fill-rule:nonzero;"/>
            </g>
            <g transform="matrix(1,0,0,1,6753.79,883.102)">
                <path d="M0,24.03L-5.237,24.03L-5.237,10.552C-5.237,6.389 -6.819,4.323 -9.978,4.323C-11.528,4.323 -12.794,4.893 -13.757,6.029C-14.72,7.181 -15.215,8.519 -15.215,10.071L-15.215,24.03L-20.437,24.03L-20.437,7.226C-20.437,5.155 -20.514,2.914 -20.636,0.491L-16.029,0.491L-15.788,4.171L-15.637,4.171C-15.034,3.027 -14.133,2.079 -12.929,1.334C-11.514,0.455 -9.919,0 -8.187,0C-5.983,0 -4.154,0.722 -2.709,2.138C-0.901,3.877 0,6.489 0,9.935L0,24.03Z" style="fill:white;fill-rule:nonzero;"/>
            </g>
            <g transform="matrix(1,0,0,1,6789.01,897.846)">
                <path d="M0,-10.333L-5.764,-10.333L-5.764,1.107C-5.764,4.011 -4.756,5.462 -2.709,5.462C-1.775,5.462 -1.007,5.38 -0.39,5.222L-0.24,9.188C-1.281,9.572 -2.633,9.776 -4.311,9.776C-6.381,9.776 -7.991,9.145 -9.149,7.889C-10.309,6.621 -10.896,4.516 -10.896,1.535L-10.896,-10.333L-14.344,-10.333L-14.344,-14.253L-10.896,-14.253L-10.896,-18.565L-5.764,-20.109L-5.764,-14.253L0,-14.253L0,-10.333Z" style="fill:white;fill-rule:nonzero;"/>
            </g>
            <g transform="matrix(1,0,0,1,6816.71,872.787)">
                <path d="M0,34.345L-5.225,34.345L-5.225,20.964C-5.225,16.742 -6.805,14.638 -9.981,14.638C-12.388,14.638 -14.058,15.862 -14.953,18.301C-15.126,18.82 -15.202,19.452 -15.202,20.19L-15.202,34.345L-20.433,34.345L-20.433,0L-15.202,0L-15.202,14.192L-15.097,14.192C-13.456,11.611 -11.101,10.315 -8.039,10.315C-5.864,10.315 -4.079,11.037 -2.658,12.453C-0.889,14.228 0,16.863 0,20.356L0,34.345Z" style="fill:white;fill-rule:nonzero;"/>
            </g>
            <g transform="matrix(1,0,0,1,6840.31,897.736)">
                <path d="M0,-4.842C0.029,-6.392 -0.31,-7.732 -1.022,-8.86C-1.919,-10.311 -3.312,-11.044 -5.178,-11.044C-6.894,-11.044 -8.276,-10.336 -9.36,-8.912C-10.22,-7.775 -10.73,-6.423 -10.896,-4.842L0,-4.842ZM4.997,-3.486C4.997,-2.554 4.921,-1.757 4.803,-1.109L-10.896,-1.109C-10.837,1.218 -10.083,2.986 -8.623,4.211C-7.3,5.315 -5.582,5.86 -3.492,5.86C-1.157,5.86 0.949,5.49 2.858,4.746L3.671,8.38C1.459,9.345 -1.182,9.834 -4.214,9.834C-7.856,9.834 -10.73,8.758 -12.815,6.621C-14.885,4.468 -15.939,1.586 -15.939,-2.027C-15.939,-5.579 -14.977,-8.537 -13.033,-10.899C-10.987,-13.42 -8.246,-14.676 -4.8,-14.676C-1.399,-14.676 1.16,-13.42 2.905,-10.899C4.289,-8.899 4.997,-6.423 4.997,-3.486" style="fill:white;fill-rule:nonzero;"/>
            </g>
        </g>
    </g>
</svg>
