<svg id="logo" xmlns="http://www.w3.org/2000/svg" viewBox="0 0 92.96 34.02"><defs><style>.cls-1{fill:#4a310d;}.cls-2{fill:#f4847c;}.cls-3{fill:#78cdd1;}.cls-4{fill:#ffc60b;}</style></defs><path class="cls-1" d="M69,7.77a2.47,2.47,0,0,0-1-.77,2.72,2.72,0,0,0-1.19-.26A2.89,2.89,0,0,0,65.55,7a3.32,3.32,0,0,0-1,.77,3.46,3.46,0,0,0-.67,1.13,3.53,3.53,0,0,0-.25,1.33,3.73,3.73,0,0,0,.25,1.39,3.26,3.26,0,0,0,.67,1.11,3,3,0,0,0,1,.75,3.31,3.31,0,0,0,2.73,0,3.11,3.11,0,0,0,1.08-.88l.76.64a3.5,3.5,0,0,1-1.4,1.12,4.79,4.79,0,0,1-3.57,0,4.42,4.42,0,0,1-1.38-.93,4.2,4.2,0,0,1-.92-1.41,4.53,4.53,0,0,1-.34-1.79,4.85,4.85,0,0,1,.32-1.75,4.33,4.33,0,0,1,.91-1.41,4.1,4.1,0,0,1,1.38-.95,4.37,4.37,0,0,1,1.75-.35,4.73,4.73,0,0,1,1.68.31,3.08,3.08,0,0,1,1.35,1Z"/><path class="cls-1" d="M72.26,6h1v8.49h-1Z"/><path class="cls-1" d="M78.92,6h1l3.64,8.49H82.34l-.87-2.09H77.18l-.89,2.09H75.14Zm.46,1.29h0l-1.78,4.18h3.5Z"/><path class="cls-1" d="M85.39,6h1v7.55h3.92v.94H85.39Z"/><path class="cls-1" d="M50.6,21.26a2.39,2.39,0,0,0-1-.78,2.89,2.89,0,0,0-1.19-.25,3,3,0,0,0-1.32.28,3.3,3.3,0,0,0-1,.78,3.48,3.48,0,0,0-.68,1.13,3.73,3.73,0,0,0-.24,1.33,3.94,3.94,0,0,0,.24,1.39,3.43,3.43,0,0,0,.67,1.11,3.14,3.14,0,0,0,2.36,1,3.06,3.06,0,0,0,2.48-1.19l.77.64a3.57,3.57,0,0,1-1.4,1.12,4.56,4.56,0,0,1-1.85.36A4.31,4.31,0,0,1,45.35,27a4.36,4.36,0,0,1-.92-1.41,4.71,4.71,0,0,1-.33-1.79A4.65,4.65,0,0,1,44.42,22a4.15,4.15,0,0,1,.9-1.41,4.31,4.31,0,0,1,1.38-.95,4.42,4.42,0,0,1,1.76-.35,4.81,4.81,0,0,1,1.68.31,3.2,3.2,0,0,1,1.35,1Z"/><path class="cls-1" d="M56.64,19.51h1L61.24,28H60.05l-.87-2.09H54.89L54,28H52.86Zm.46,1.29h0L55.29,25h3.5Z"/><path class="cls-1" d="M63.11,19.51H65.3a10.14,10.14,0,0,1,1.23.07,3.43,3.43,0,0,1,1.1.31,2.12,2.12,0,0,1,.79.7,2.3,2.3,0,0,1,.3,1.26,2.07,2.07,0,0,1-.57,1.51,2.81,2.81,0,0,1-1.58.73L69,28H67.76l-2.33-3.82h-1.3V28h-1Zm1,3.74H65l.88,0a2.79,2.79,0,0,0,.84-.15,1.6,1.6,0,0,0,.63-.41,1.17,1.17,0,0,0,.25-.81,1.35,1.35,0,0,0-.18-.74,1.22,1.22,0,0,0-.48-.42,2,2,0,0,0-.67-.2,6.13,6.13,0,0,0-.74,0H64.13Z"/><path class="cls-1" d="M71.24,19.51h5.39v.93H72.26V23.1h4.08V24H72.26v3h4.59V28H71.24Z"/><path class="cls-1" d="M79.15,19.51h5.39v.93H80.17V23.1h4.08V24H80.17v3h4.59V28H79.15Z"/><path class="cls-1" d="M87.06,19.51h2.2a10.14,10.14,0,0,1,1.23.07,3.37,3.37,0,0,1,1.09.31,2,2,0,0,1,.79.7,2.3,2.3,0,0,1,.3,1.26,2.07,2.07,0,0,1-.57,1.51,2.78,2.78,0,0,1-1.57.73L93,28H91.72l-2.33-3.82H88.08V28h-1Zm1,3.74H89l.88,0a2.72,2.72,0,0,0,.83-.15,1.47,1.47,0,0,0,.63-.41,1.17,1.17,0,0,0,.25-.81,1.35,1.35,0,0,0-.18-.74,1.22,1.22,0,0,0-.48-.42,2,2,0,0,0-.66-.2,6.3,6.3,0,0,0-.75,0H88.08Z"/><circle class="cls-2" cx="19.81" cy="17.28" r="2.32"/><path class="cls-3" d="M3.27,9c10.78,3.79,10.15-1.94,17.54-.94a.34.34,0,0,1,.11.63C13.37,13.4,15.13,35.26.2,27.2c-.26-.14-.28-.58,0-.61C9.55,25.87,13.39,15.11,16.5,11,11,16,4.6,16,2.8,9.44A.36.36,0,0,1,3.27,9Z"/><path class="cls-2" d="M17.3,20.52c-3.48,3.77,1.25,9.57-2.58,12.65-.46.37-.09,1,.79.81,10.8-2.56,0-9.31,3-13.06C19,20.29,17.93,19.84,17.3,20.52Z"/><path class="cls-4" d="M27,9.9a2,2,0,1,0-2-2A2,2,0,0,0,27,9.9Z"/><path class="cls-4" d="M39.3,25.48c-4.15-3.65-6.74-2.1-10-1.17a5.35,5.35,0,0,0-1.43-6,6.58,6.58,0,0,1-1.06-1.39c3-.06,6.16-3.08,8.22-3.18.42,0,.16-.36-.19-.52C31.74,11.8,29.42,14.62,26,14a22.15,22.15,0,0,1,.18-3c0-.35-.28-.62-.57-.43a3.73,3.73,0,0,0-1.34,2.85,9.77,9.77,0,0,1-1.46-.91c-.36-.27-.81,0-.64.42a7.58,7.58,0,0,0,2.21,3.16,11.71,11.71,0,0,0,.7,2.49c1.31,3.17.74,6.58-2.4,5.67-.37-.13-.74-.28-1.13-.45s-.84.31-.55.66c7.7,9.39,12-2.19,17.92,1.8C39.29,26.51,39.65,25.8,39.3,25.48Z"/><circle class="cls-3" cx="18.13" cy="3.54" r="3.54"/><path class="cls-1" d="M48.78,7.52c-.82-1.31-3.8-.9-3.37.92.34,1.41,3.13,1.18,4,2.5a2.49,2.49,0,0,1,0,2.52c-.8,1.43-4,1.89-5.32.09l.88-.71c.75,1.39,3.63,1.26,3.68-.59,0-1.46-2-1.27-3.33-2.13a2.24,2.24,0,0,1-.14-3.7,3.42,3.42,0,0,1,4.43.38Z"/><path class="cls-1" d="M56.16,14.73a4.33,4.33,0,0,1-4.48-4.46,4.49,4.49,0,0,1,9,0A4.34,4.34,0,0,1,56.16,14.73Zm0-.94c4.53,0,4.48-7,0-7S51.68,13.79,56.16,13.79Z"/></svg>