<?xml version="1.0" encoding="utf-8"?>
<!-- Generator: Adobe Illustrator 24.1.2, SVG Export Plug-In . SVG Version: 6.00 Build 0)  -->
<svg version="1.1" xmlns="http://www.w3.org/2000/svg" xmlns:xlink="http://www.w3.org/1999/xlink" x="0px" y="0px"
	 viewBox="0 0 574.08 62.64" style="enable-background:new 0 0 574.08 62.64;" xml:space="preserve">
<g id="社職">
	
		<text transform="matrix(1.0001 1.050116e-03 -1.050000e-03 1 449.5717 54.7069)" style="font-family:'NotoSansTC-Black'; font-size:61.3648px;">社職</text>
</g>
<g id="Ref" style="display:none;">
	<rect x="213.23" y="20.84" style="display:inline;fill:#FF3C00;" width="12.38" height="28.55"/>
	<rect x="437.71" y="14.69" style="display:inline;fill:#FF3C00;" width="12.38" height="28.55"/>
</g>
<g id="Horizontal_Logo_1_xA0_Image_00000053534888387044382830000006449759473293679760_">
	<g>
		<g>
			<path d="M244.13,61.19c-2.33,0-4.51-0.44-6.53-1.32c-2.02-0.88-3.97-2.35-5.84-4.39c-1.88-2.05-3.37-5.1-4.48-9.17
				c-1.11-4.07-1.66-8.94-1.66-14.63c0-10.24,1.79-17.72,5.38-22.44c3.58-4.72,7.99-7.08,13.22-7.08c4.27,0,8.03,1.54,11.3,4.61
				c3.27,3.07,5.1,7.82,5.5,14.25l-11.77,4.44c-0.34-4.38-0.95-7.39-1.83-9.04c-0.88-1.65-1.98-2.47-3.28-2.47
				c-1.59,0-3,1.52-4.22,4.56c-1.22,3.04-1.83,7.44-1.83,13.18c0,6.09,0.58,10.57,1.75,13.44c1.17,2.87,2.6,4.31,4.31,4.31
				c2.96,0,4.95-3.44,5.97-10.32l12.03,1.62c-0.57,3.92-1.48,7.28-2.73,10.07c-1.25,2.79-2.74,4.91-4.48,6.36
				c-1.74,1.45-3.49,2.49-5.25,3.11C247.91,60.88,246.06,61.19,244.13,61.19"/>
		</g>
		<path d="M276.71,39.69h5.97l-2.99-18.85L276.71,39.69z M285.84,60.08l-1.37-8.62h-9.56l-1.36,8.62h-12.63l10.92-56.65h15.7
			l10.92,56.65H285.84z"/>
		<g>
			<path d="M313.22,14.69v14.93h1.71c2.16,0,3.75-0.71,4.78-2.13c1.02-1.42,1.54-3.13,1.54-5.12c0-2.05-0.53-3.84-1.58-5.37
				c-1.05-1.54-2.63-2.3-4.73-2.3H313.22z M334.29,60.08h-13.31l-5.8-18.68h-1.02h-0.94v18.68h-12.29V3.43
				c2.56-0.34,6.97-0.51,13.22-0.51c6.65,0,11.57,1.75,14.76,5.25c3.18,3.5,4.78,8.23,4.78,14.21c0,6.83-2.36,11.94-7.08,15.36
				L334.29,60.08z"/>
		</g>
		<polygon points="366.54,15.2 349.99,15.2 349.99,25.1 362.62,25.1 362.62,36.87 349.99,36.87 349.99,48.31 366.54,48.31 
			366.54,60.08 337.7,60.08 337.7,3.43 366.54,3.43 		"/>
		<polygon points="400.15,15.2 383.6,15.2 383.6,25.1 396.23,25.1 396.23,36.87 383.6,36.87 383.6,48.31 400.15,48.31 400.15,60.08 
			371.32,60.08 371.32,3.43 400.15,3.43 		"/>
		<path d="M416.53,14.69v14.93h1.71c2.16,0,3.75-0.71,4.78-2.13c1.02-1.42,1.54-3.13,1.54-5.12c0-2.05-0.53-3.84-1.58-5.37
			c-1.05-1.54-2.63-2.3-4.74-2.3H416.53z M437.6,60.08h-13.31l-5.8-18.68h-1.02h-0.94v18.68h-12.29V3.43
			c2.56-0.34,6.97-0.51,13.22-0.51c6.65,0,11.57,1.75,14.76,5.25c3.18,3.5,4.78,8.23,4.78,14.21c0,6.83-2.36,11.94-7.08,15.36
			L437.6,60.08z"/>
		<g>
			<path d="M110.62,61.35c-2.33,0-4.51-0.44-6.53-1.32c-2.02-0.88-3.97-2.35-5.84-4.39c-1.88-2.05-3.37-5.1-4.48-9.17
				c-1.11-4.07-1.66-8.94-1.66-14.63c0-10.24,1.79-17.72,5.38-22.44c3.58-4.72,7.99-7.08,13.22-7.08c4.27,0,8.03,1.54,11.3,4.61
				c3.27,3.07,5.1,7.82,5.5,14.25l-11.77,4.44c-0.34-4.38-0.95-7.39-1.83-9.04c-0.88-1.65-1.98-2.47-3.28-2.47
				c-1.59,0-3,1.52-4.22,4.56c-1.22,3.04-1.83,7.44-1.83,13.18c0,6.09,0.58,10.57,1.75,13.44c1.17,2.87,2.6,4.31,4.31,4.31
				c2.96,0,4.95-3.44,5.97-10.32l12.03,1.62c-0.57,3.92-1.48,7.28-2.73,10.07c-1.25,2.79-2.75,4.91-4.48,6.36
				c-1.74,1.45-3.49,2.49-5.25,3.11C114.4,61.04,112.55,61.35,110.62,61.35"/>
			<rect x="131" y="3.59" width="12.29" height="56.65"/>
			<path d="M161.54,39.85h5.97L164.52,21L161.54,39.85z M170.67,60.24l-1.37-8.62h-9.56l-1.36,8.62h-12.63l10.92-56.65h15.7
				l10.92,56.65H170.67z"/>
			<polygon points="198.05,48.47 213.23,48.47 213.23,60.24 185.76,60.24 185.76,3.59 198.05,3.59 			"/>
			<g>
				<path d="M19.68,61.35c-4.49,0-8.43-1.52-11.82-4.56c-3.39-3.04-5.39-6.92-6.02-11.65l12.29-4.35c-0.11,2.9,0.4,5.09,1.54,6.57
					c1.14,1.48,2.47,2.22,4.01,2.22c1.42,0,2.6-0.45,3.54-1.37c0.94-0.91,1.41-2.13,1.41-3.67c0-1.36-0.51-2.62-1.54-3.75
					c-1.02-1.14-2.87-2.36-5.55-3.67c-5-2.44-8.66-5.16-10.96-8.15c-2.3-2.99-3.46-6.7-3.46-11.13c0-4.32,1.56-7.99,4.69-11.01
					c3.13-3.01,7.02-4.52,11.69-4.52c4.38,0,8.12,1.51,11.22,4.52c3.1,3.02,4.93,6.94,5.5,11.77l-12.2,4.35
					c0.06-2.96-0.33-5.18-1.15-6.66c-0.83-1.48-1.98-2.22-3.46-2.22c-1.19,0-2.13,0.43-2.82,1.28c-0.68,0.85-1.02,1.93-1.02,3.24
					c0,2.67,2.25,5.26,6.74,7.76c5.29,2.84,9.07,5.56,11.35,8.15c2.27,2.59,3.41,6.01,3.41,10.28c0,4.61-1.69,8.52-5.08,11.73
					C28.62,59.75,24.51,61.35,19.68,61.35"/>
			</g>
			<polygon points="51.86,60.24 42.47,60.24 39.48,57.26 39.48,6.58 42.47,3.59 51.86,3.59 51.86,9.57 45.46,9.57 45.46,54.27 
				51.86,54.27 			"/>
			<polygon points="86.74,60.24 77.34,60.24 77.34,54.27 83.75,54.27 83.75,9.57 77.34,9.57 77.34,3.59 86.74,3.59 89.73,6.58 
				89.73,57.26 			"/>
		</g>
	</g>
</g>
</svg>
